<?xml version="1.0" standalone="no"?><!DOCTYPE svg PUBLIC "-//W3C//DTD SVG 1.1//EN" "http://www.w3.org/Graphics/SVG/1.1/DTD/svg11.dtd"><svg t="1551853344788" class="icon" style="" viewBox="0 0 1024 1024" version="1.1" xmlns="http://www.w3.org/2000/svg" p-id="2791" xmlns:xlink="http://www.w3.org/1999/xlink" width="128" height="128"><defs><style type="text/css"></style></defs><path d="M512 512m-469.333333 0a469.333333 469.333333 0 1 0 938.666666 0 469.333333 469.333333 0 1 0-938.666666 0Z" fill="#F6F7F9" p-id="2792"></path><path d="M326.613333 757.333333L245.333333 898.133333c11.626667 8.106667 23.786667 15.68 36.16 22.613334L375.893333 757.333333z" fill="#DFE2E7" p-id="2793"></path><path d="M314.24 757.333333l-77.653333 134.613334 8.746666 6.186666L326.613333 757.333333zM281.493333 920.746667l9.28 5.226666L388.16 757.333333h-12.266667z" fill="#D2D5DA" p-id="2794"></path><path d="M648.106667 757.333333l94.4 163.52q18.56-10.666667 36.16-22.72L697.386667 757.333333z" fill="#DFE2E7" p-id="2795"></path><path d="M709.653333 757.333333h-12.266666L778.666667 898.133333l8.746666-6.186666zM635.733333 757.333333l97.386667 168.64c3.2-1.6 6.293333-3.413333 9.386667-5.12L648.106667 757.333333z" fill="#D2D5DA" p-id="2796"></path><path d="M512 128h384v533.333333H512z" fill="#9196A9" p-id="2797"></path><path d="M128 128h384v533.333333H128z" fill="#A8B2BC" p-id="2798"></path><path d="M512 629.333333m-21.333333 0a21.333333 21.333333 0 1 0 42.666666 0 21.333333 21.333333 0 1 0-42.666666 0Z" fill="#FFFFFF" p-id="2799"></path><path d="M149.333333 160h725.333334v437.333333H149.333333z" fill="#FEFFFF" p-id="2800"></path><path d="M554.666667 661.333333h-42.666667v96h53.333333l-10.666666-96z" fill="#D3D7E0" p-id="2801"></path><path d="M469.333333 661.333333l-10.666666 96h53.333333v-96h-42.666667z" fill="#D5DBE1" p-id="2802"></path><path d="M384 736h128v21.333333H384z" fill="#A8B2BC" p-id="2803"></path><path d="M512 736h128v21.333333H512z" fill="#9196A9" p-id="2804"></path><path d="M117.333333 757.333333h789.333334v74.666667H117.333333z" fill="#DFE2E7" p-id="2805"></path><path d="M117.333333 757.333333h789.333334v10.666667H117.333333zM117.333333 821.333333h789.333334v10.666667H117.333333z" fill="#D2D5DA" p-id="2806"></path><path d="M768 725.333333h85.333333v32h-85.333333z" fill="#E1E4E8" p-id="2807"></path><path d="M170.666667 736h128v21.333333H170.666667z" fill="#A8B2BC" p-id="2808"></path><path d="M170.666667 714.666667h128v21.333333H170.666667z" fill="#9196A9" p-id="2809"></path><path d="M213.333333 234.666667h288v85.333333H213.333333zM522.666667 234.666667h288v85.333333H522.666667z" fill="#B8BDC3" p-id="2810"></path><path d="M213.333333 362.666667h288v64H213.333333zM522.666667 362.666667h288v64H522.666667zM213.333333 469.333333h288v64H213.333333zM522.666667 469.333333h288v64H522.666667z" fill="#D7DCE2" p-id="2811"></path></svg>
